# xmcd
#
# Track frame offsets: 
#        150
#        21710
#        39877
#        57013
#        78335
#        96871
#        116250
#        128965
#        148837
#        167367
#        185414
#        215022
#
# Disc length: 3142 seconds
#
# Revision: 2
# Processed by: cddbd v1.5.2PL0 Copyright (c) Steve Scherf et al.
# Submitted via: ExactAudioCopy v1.3
#
DISCID=a10c440c
DTITLE=ATLUS - PERSONA MUSIC LIVE BAND
DYEAR=2010
DGENRE=Game
TTITLE0=全ての人の魂の戦い
TTITLE1=Burn My Dread
TTITLE2=Mass Destruction
TTITLE3=Soul Phrase
TTITLE4=霧
TTITLE5=Heaven
TTITLE6=Time
TTITLE7=Soul Drive
TTITLE8=Breakin' Through
TTITLE9=Reach Out To The Truth
TTITLE10=キミの記憶
TTITLE11=全ての人の魂の宴
EXTD=
EXTT0=
EXTT1=
EXTT2=
EXTT3=
EXTT4=
EXTT5=
EXTT6=
EXTT7=
EXTT8=
EXTT9=
EXTT10=
EXTT11=
PLAYORDER=
